<?xml version="1.0" encoding="UTF-8"?>
<svg id="Layer_1" data-name="Layer 1" xmlns="http://www.w3.org/2000/svg" viewBox="0 0 535.84 657.23">
  <defs>
    <style>
      .cls-1 {
        fill: #2619b1;
        stroke-width: 0px;
      }
    </style>
  </defs>
  <path class="cls-1" d="M189.68,46.47c-48.37,30.35-107.17,91.05-107.17,189.68,0,91.05,49.32,166.92,148.9,182.09V139.41C231.41,40.78,285.47.95,348.06.95c90.1,0,187.78,86.3,187.78,226.67,0,157.43-111.91,239.94-227.61,251.32v178.3h-76.82v-178.3C117.6,470.4,0,399.27,0,238.04,0,106.22,94.84,26.55,157.43,0l32.25,46.47ZM308.23,418.24c90.1-12.33,147.95-82.51,147.95-188.73,0-93.89-55.01-167.87-108.12-167.87-23.71,0-39.83,20.87-39.83,64.49v292.1Z"/>
</svg>