<?xml version="1.0" encoding="UTF-8"?>
<svg id="Layer_1" data-name="Layer 1" xmlns="http://www.w3.org/2000/svg" viewBox="0 0 1426.01 1132.9">
  <defs>
    <style>
      .cls-1 {
        fill: #2f1e0a;
      }

      .cls-1, .cls-2, .cls-3, .cls-4, .cls-5, .cls-6, .cls-7, .cls-8, .cls-9, .cls-10, .cls-11, .cls-12, .cls-13 {
        stroke-width: 0px;
      }

      .cls-2 {
        fill: #362411;
      }

      .cls-3 {
        fill: #372612;
      }

      .cls-4 {
        fill: #392815;
      }

      .cls-5 {
        fill: #301e0a;
      }

      .cls-6 {
        fill: #2e1c08;
      }

      .cls-7 {
        fill: #3e2d1b;
      }

      .cls-8 {
        fill: #372512;
      }

      .cls-9 {
        fill: #34220f;
      }

      .cls-10 {
        fill: #2512b5;
      }

      .cls-11 {
        fill: #34230f;
      }

      .cls-12 {
        fill: #352411;
      }

      .cls-13 {
        fill: #3a2916;
      }
    </style>
  </defs>
  <path class="cls-10" d="M781.52,653.27c3.63-3.75,6.44-6.54,9.13-9.45,24.27-26.19,54.7-41.07,89.42-46.94,44.21-7.47,85.33,1.31,122.12,27.28,31.73,22.39,49.14,54.04,55.63,91.76,2.42,14.06,3.73,28.48,3.8,42.75.35,80.29.17,160.57.17,240.86v3.07h-92.58c0-1.57,0-3.33,0-5.08,0-70.98.11-141.95-.1-212.93-.07-22.55-3.12-44.7-12.41-65.58-13.04-29.32-36.2-44.63-67.49-48.46-16.99-2.08-33.9-1.54-50.15,4.32-31.84,11.49-50.25,34.47-55.65,67.63-1.68,10.33-2.02,20.96-2.05,31.46-.17,74.33-.09,148.67-.09,223v5.69h-92.55v-360.09c-31.71,25.94-65.71,45.75-102.67,60.47-37.01,14.74-75.42,23.78-115.24,27.88v271.66h-117.23v-271.33c-11.3-1.36-22.19-2.39-33-4.01-79.55-11.95-151.65-40.72-211.83-95.46-52.61-47.85-84.54-107.62-99.34-176.8C.74,414.42-1.9,373.38,1.33,332.08c6.51-83.35,37.34-156.84,91.29-220.54C132.09,64.93,179.17,28.01,234.88,2.45c1.79-.82,3.6-1.57,5.62-2.45,16.41,23.64,32.74,47.17,48.73,70.2-14.08,10.64-28.41,20.52-41.67,31.67-58.82,49.5-98.48,111.06-114.03,186.83-13.06,63.62-10.32,126.69,12.86,187.78,30.24,79.68,87.58,130.32,169.3,153.56,12.1,3.44,24.53,5.72,37.75,8.75v-6.8c0-139.66.01-279.33,0-418.99,0-36.26,4.11-71.88,17.72-105.79C394.94,47.86,438.41,12.78,501.9,3.64c49.34-7.11,95.91,2.93,139.86,25.53,62.95,32.38,107.88,82.26,138.62,145.38,20.86,42.82,32.27,88.27,36.09,135.67,4.67,58.1-.57,115.16-18.69,170.73-4.29,13.14-10,25.82-14.97,38.74-.75,1.95-1.47,4.07-1.47,6.11-.09,41.36-.06,82.73-.06,124.09,0,.7.1,1.4.25,3.38ZM470.73,638.12c21.1-2.86,41.04-7.66,60.31-15.04,71.52-27.37,119.29-78.19,144.97-149.61,23.81-66.24,26.56-134.17,11.4-202.71-10.18-46.02-29.05-88.16-59.94-124.29-17.27-20.2-37.42-36.71-62.68-46.12-13.47-5.02-27.41-7.69-41.73-5.54-22.36,3.36-35.05,18.23-42.93,38.05-7.91,19.9-9.42,40.84-9.42,62,.03,145.89.02,291.77.02,437.66v5.61Z"/>
  <path class="cls-10" d="M1152.53,601.91h91.97v400.71h-91.97v-400.71Z"/>
  <path class="cls-6" d="M1316.31,894.12h109.71v108.62h-109.71v-108.62Z"/>
  <path class="cls-1" d="M1178.32,490.04c-1.12,5.1-2.35,9.92-3.22,14.8-1.75,9.88.67,19.06,5.56,27.56.93,1.62,3.46,2.7,5.47,3.27,11.77,3.36,19.35,12.54,19.62,24.49.22,9.83-4.4,17.25-12.41,22.5-5.27,3.46-10.83,3.36-16.43.23-13.93-7.78-21.04-20.24-24.29-35.3-5.13-23.7,4.91-46.9,24.7-57.33.26-.13.58-.14,1-.24Z"/>
  <path class="cls-5" d="M1213.66,584.31c1.05-4.88,2.32-9.73,3.09-14.66,1.51-9.69-.77-18.76-5.64-27.11-.89-1.52-3.22-2.54-5.09-3.08-10.6-3.11-17.63-9.74-19.53-20.7-1.86-10.71,1.98-19.51,11.02-25.73,5.5-3.79,11.23-3.99,17.21-.7,16.98,9.34,27.8,31.71,25.21,52.6-2.16,17.45-9.35,31.69-25.75,39.98-.15-.22-.32-.43-.52-.61Z"/>
  <path class="cls-4" d="M854.28,1055.95h6.36v10.31c5.73-7.36,11.95-11.3,20.32-11.32,8.14-.01,14.97,2.63,20.02,9.09,8.98,11.49,6.96,31.09-3.94,39.86-8.66,6.97-25.5,8.5-35.97-5.81v34.81h-6.8v-76.95ZM860.91,1081.98c-.02,11.24,6.69,19.76,16.41,20.84,11.38,1.26,19.62-4.7,21.9-15.85,2.44-11.94-3.55-23.03-13.73-25.42-13.67-3.2-24.57,5.85-24.59,20.43Z"/>
  <path class="cls-9" d="M463.54,1065.83v-9.89h6.48v52.13h-6.28v-10.86c-5.6,8.2-12.33,11.94-20.96,11.89-6.84-.04-12.85-2.28-17.68-7.24-10.22-10.48-9.77-30.88.86-40.69,10.55-9.73,26.69-7.89,37.57,4.66ZM424.76,1081.73c-.08,12.82,7.59,21.25,19.33,21.26,11.38,0,19.41-8.57,19.48-20.81.07-12.42-8.13-21.4-19.51-21.37-11.48.02-19.22,8.41-19.29,20.92Z"/>
  <path class="cls-9" d="M1156.06,1066.18v-10.2h6.49v52.03h-6.44v-10.62c-5.19,7.44-11.35,11.33-19.4,11.67-7.88.34-14.73-2.1-20.02-8.12-9.78-11.14-8.43-31.47,2.63-40.59,10.82-8.93,26.59-6.7,36.74,5.83ZM1117.16,1081.87c0,12.82,7.7,21.17,19.46,21.13,11.35-.05,19.32-8.67,19.34-20.94.02-12.38-8.28-21.36-19.65-21.24-11.49.12-19.16,8.55-19.16,21.06Z"/>
  <path class="cls-11" d="M590.53,1084.62h-42.3c-1.48,10.18,7.35,19.03,18.58,18.66,6.87-.23,12.11-3.02,15.7-9.31,1.01-1.76,4.41-2.15,7.33-3.43-1.53,12.21-13.78,20.05-26.81,18.42-15.19-1.91-24.37-14.71-22.35-31.16,1.91-15.55,13.67-24.5,29.73-22.64,13.79,1.6,22.13,13.58,20.11,29.46ZM584.11,1078.81c-.81-11.88-8.04-18.57-19-18.08-10.05.45-17.42,8.15-17.16,18.08h36.16Z"/>
  <path class="cls-11" d="M765.45,1084.48h-42.31c-1.29,10.5,7.45,19.21,18.68,18.8,6.87-.25,12.1-3.07,15.67-9.36.99-1.74,4.44-2.09,7.38-3.35-1.89,12.54-14.32,20.28-27.41,18.32-15.14-2.27-24.16-15.37-21.77-31.61,2.29-15.53,14.37-24.37,30.18-22.08,13.63,1.97,21.72,13.91,19.58,29.27ZM722.68,1078.8h36.16c.13-10.72-6.77-17.78-17.46-18.07-10.35-.28-18.08,7.01-18.69,18.07Z"/>
  <path class="cls-11" d="M978.51,1090.82c-2.83,14.2-15.4,20.8-29.83,17.44-13.63-3.17-21.43-17.14-18.28-32.72,2.97-14.7,15.09-22.84,30.2-20.28,13.47,2.28,21.2,13.88,19.2,29.19h-42.3c-1.44,10.39,7.36,19.2,18.59,18.82,6.87-.24,12.11-3.04,15.7-9.32,1-1.75,4.42-2.13,6.73-3.14ZM973.26,1078.78c-.27-11.49-7.91-18.64-19.04-18.04-10.1.54-17.61,8.55-16.88,18.04h35.92Z"/>
  <path class="cls-2" d="M652.32,1070.78h-5.85c-3.61-8.76-10.57-12.46-18.46-8.95-2.49,1.11-4.85,4.12-5.77,6.77-1.17,3.39,1.41,6.04,4.45,7.62,2.01,1.04,4.18,1.81,6.34,2.53,2.45.82,4.98,1.4,7.44,2.18,9.42,2.97,13.39,7.64,12.69,14.83-.71,7.2-7.26,12.55-16.27,13.28-12.33,1-21.33-4.96-22.9-15.36h6.32c3.86,8.26,10.65,11.46,19.26,8.96,3.82-1.11,6.49-3.57,6.88-7.65.4-4.18-2.38-6.46-5.89-7.7-4.87-1.71-9.92-2.94-14.79-4.65-7.48-2.62-10.96-7.18-10.76-13.59.19-6.24,4.55-11.87,12-13.02,5.33-.82,11.24-.37,16.44,1.11,6.06,1.73,8.75,6.98,8.88,13.63Z"/>
  <path class="cls-2" d="M788.89,1093.7h6.33c3.89,8.08,9.62,10.95,18.34,9.13,4.3-.9,7.32-3.33,7.79-7.81.46-4.39-2.57-6.61-6.27-7.86-4.61-1.55-9.33-2.77-13.92-4.36-8.01-2.77-11.67-7.52-11.21-14.17.44-6.33,5.17-11.88,12.81-12.9,5.07-.68,10.69-.15,15.58,1.39,5.93,1.87,8.94,6.94,9.12,13.64h-6.03c-3.69-8.72-9.92-11.97-18.08-9.22-3.36,1.13-5.99,3.09-6.36,6.96-.37,3.89,1.73,6.49,5.03,7.9,3.76,1.61,7.72,2.75,11.6,4.08.72.25,1.48.36,2.2.6,9.13,2.99,12.97,7.58,12.29,14.65-.65,6.81-6.36,11.86-14.88,13.17-12.41,1.91-22.58-4.37-24.32-15.21Z"/>
  <path class="cls-2" d="M1262.51,1070.9c-2.35,0-4.16,0-5.97,0-3.83-8.86-9.99-12.07-18.13-9.35-3.36,1.12-6,3.08-6.38,6.94-.39,3.89,1.76,6.34,4.99,7.94,1.9.94,3.92,1.67,5.93,2.33,2.6.85,5.27,1.48,7.87,2.32,9.14,2.96,12.98,7.56,12.32,14.63-.64,6.81-6.34,11.87-14.86,13.19-12.4,1.92-22.57-4.33-24.35-15.19h6.33c3.98,8.11,9.61,10.93,18.33,9.12,4.3-.89,7.32-3.32,7.81-7.79.48-4.4-2.54-6.62-6.24-7.88-4.61-1.56-9.33-2.77-13.92-4.35-8.01-2.77-11.68-7.51-11.23-14.15.43-6.34,5.14-11.89,12.79-12.92,5.07-.68,10.69-.16,15.58,1.37,5.94,1.86,8.95,6.93,9.16,13.78Z"/>
  <path class="cls-12" d="M387.97,1091.24h6.69c-2.28,11.73-12.92,18.91-26.13,17.8-13.28-1.11-22.54-11.16-23.07-25.07-.59-15.32,7.4-26.53,20.48-28.72,14.14-2.36,25.14,4.08,28.9,17.23h-6.73c-3.88-9.49-11.48-13.59-22.8-10.89-.88.21-1.74.56-2.57.94-9.17,4.22-13.23,17.75-8.8,29.29,3.47,9.06,13.03,13.52,22.94,10.71,5.18-1.47,8.03-4.37,11.08-11.29Z"/>
  <path class="cls-12" d="M1052.28,1072.61c-2.25,0-4.46,0-6.67,0-4.38-9.3-11.28-13.24-20.28-11.58-9.22,1.71-14.55,8.07-15.13,18.44-.18,3.17-.1,6.46.57,9.54,1.84,8.51,7.64,13.36,16.29,14.18,8.74.82,14.6-2.92,18.5-11.95h6.61c-1.6,11.13-12.22,18.57-25.38,17.84-13.64-.76-23.27-11.06-23.72-25.37-.49-15.5,7.98-26.89,21.22-28.53,14.48-1.8,25.3,4.86,27.99,17.44Z"/>
  <path class="cls-13" d="M507.22,1061.49v46.56h-6.76v-46.36c-2.56-.12-4.76-.22-7.19-.33v-5.4c2.21-.14,4.43-.27,6.63-.41,2.65-16.81,6.45-20.81,18.93-19.71v5.19c-10.2,1.45-12.43,4.37-11.01,14.59h11.41v5.88h-12Z"/>
  <path class="cls-7" d="M1084.15,1108.18h-6.36v-52.16h6.36v52.16Z"/>
  <path class="cls-7" d="M1197.9,1108.17h-6.53v-52.13h6.53v52.13Z"/>
  <path class="cls-8" d="M574.16,1034.43c1.1,3.93.45,6.39-3.37,8.23-5.25,2.54-10.16,5.79-15.35,8.82-1.11-3.48-.23-5.53,2.82-7.23,5.37-3,10.49-6.44,15.9-9.82Z"/>
  <path class="cls-3" d="M1086.55,1042c-1.86,1.3-3.61,3.45-5.6,3.7-3.09.38-4.94-1.9-4.79-5.17.14-3.09,2.13-5.05,4.97-4.46,2,.41,3.65,2.5,5.45,3.85-.01.69-.02,1.39-.03,2.08Z"/>
  <path class="cls-3" d="M1200.15,1041.63c-1.77,1.42-3.39,3.7-5.36,4.06-3.06.56-5.06-1.6-5.08-4.88-.02-3.06,1.79-5.18,4.7-4.75,2.02.3,3.79,2.26,5.68,3.48.02.7.04,1.39.06,2.09Z"/>
  <path class="cls-5" d="M1214.18,584.92c-.37-.04-.75-.08-1.12-.12.2-.16.4-.32.6-.49.2.18.37.38.52.61Z"/>
</svg>