<svg width="1731" height="617" viewBox="0 0 1731 617" fill="none" xmlns="http://www.w3.org/2000/svg">
  <path
    d="M462.75 387.48C470.54 379.63 477.21 372.75 485.43 367.51C522.75 343.72 574.38 348.69 604.47 379.29C620.21 395.3 626.64 415.29 628.59 437.07C629.03 442.04 629.11 447.06 629.11 452.05C629.15 497.71 629.06 543.37 629.25 589.04C629.27 593.58 627.98 594.53 623.68 594.45C609.19 594.17 594.68 594.14 580.19 594.45C575.53 594.55 574.07 593.62 574.1 588.59C574.34 548.6 574.25 508.6 574.23 468.6C574.23 456.39 573.12 444.31 569.25 432.63C562.67 412.73 549.26 400.87 528.34 397.85C519.52 396.58 510.72 396.69 502.01 398.71C480.75 403.64 465.75 420.99 463.62 443.28C463.04 449.41 462.78 455.59 462.77 461.75C462.7 504.25 462.67 546.74 462.83 589.24C462.85 593.47 461.64 594.52 457.54 594.45C442.71 594.21 427.87 594.15 413.05 594.48C408.43 594.58 407.68 593.08 407.68 588.84C407.82 521.85 407.78 454.85 407.78 387.86V383.03C406.07 382.18 405.43 383.5 404.59 384.15C369.14 411.85 328.7 427.27 284.29 432.67C280.23 433.16 279.15 434.41 279.16 438.41C279.3 488.4 279.19 538.4 279.35 588.39C279.37 592.98 278.59 594.61 273.51 594.52C253.85 594.18 234.18 594.25 214.52 594.48C210.41 594.53 209.6 593.23 209.61 589.4C209.73 539.24 209.64 489.08 209.79 438.92C209.8 434.48 208.64 433.15 204.09 432.69C148.87 427 99.13 408.51 58.85 368.87C29.67 340.15 12.3 305.01 4.98999 265.01C-3.38001 219.21 -1.26003 174.03 16.59 130.5C40.73 71.6 82.53 29.31 139.53 1.6C142.35 0.229995 143.51 1.00999 145.07 3.30999C153.13 15.15 161.23 26.97 169.62 38.58C171.94 41.8 171.26 43 168.22 44.99C139.32 63.97 115.8 88.11 99.05 118.5C78.86 155.12 72.31 194.47 76.35 235.81C79.22 265.16 87.99 292.5 105.1 316.76C127.38 348.35 158.26 366.93 195.53 375.55C198.45 376.23 201.5 376.47 204.32 377.42C209.16 379.05 209.77 376.99 209.77 372.69C209.69 289.2 209.64 205.71 209.85 122.22C209.91 98 213.77 74.37 225.39 52.72C245.15 15.89 277.37 0.289984 317.83 1.36998C365.57 2.62998 403.54 24.86 434.28 60.13C461.87 91.79 477.14 129.19 482.64 170.6C488.95 218.15 483.91 264.27 464.2 308.4C463.47 310.04 462.8 311.9 462.79 313.65C462.7 337.76 462.73 361.87 462.73 387.52L462.75 387.48ZM279.26 239.54C279.26 264.2 279.26 288.86 279.26 313.51C279.26 333.67 279.27 353.83 279.24 373.99C279.24 376.49 278.95 378.54 282.82 377.87C337.81 368.36 377.11 338.74 398.56 286.88C412.98 252.03 415.76 215.52 410.91 178.44C406.9 147.78 396.57 119.3 377.91 94.31C365.51 77.71 350.55 64.27 330.12 58.24C307.47 51.55 291.49 59.81 283.86 82.1C279.98 93.44 279.28 105.23 279.27 117.09C279.25 157.91 279.27 198.73 279.27 239.55L279.26 239.54Z"
    fill="#2619B1" />
  <path
    d="M737.56 475.61C737.56 513.43 737.5 551.25 737.65 589.07C737.67 593.06 736.89 594.53 732.53 594.45C717.37 594.17 702.21 594.25 687.05 594.41C683.66 594.44 682.53 593.63 682.54 589.99C682.65 513.69 682.66 437.38 682.54 361.08C682.54 357.35 683.83 356.69 687.13 356.72C702.29 356.86 717.45 356.91 732.61 356.69C736.51 356.63 737.68 357.59 737.66 361.66C737.49 399.64 737.56 437.63 737.56 475.62V475.61Z"
    fill="#2619B1" />
  <path
    d="M812.14 594.39C802.65 594.39 793.16 594.29 783.67 594.45C780.73 594.5 779.59 593.78 779.61 590.59C779.75 571.61 779.74 552.64 779.62 533.66C779.6 530.61 780.48 529.64 783.57 529.66C802.88 529.78 822.19 529.77 841.5 529.66C844.31 529.64 845.23 530.43 845.22 533.31C845.11 552.45 845.08 571.6 845.25 590.74C845.28 594.15 843.88 594.47 841.1 594.44C831.45 594.31 821.79 594.39 812.14 594.39Z"
    fill="#3E2D1B" />
  <path
    d="M1370.53 585.79C1370.53 595.03 1370.55 603.78 1370.52 612.52C1370.52 614.56 1371.25 616.96 1367.58 616.89C1364 616.82 1364.65 614.51 1364.64 612.43C1364.63 591.95 1364.65 571.46 1364.6 550.98C1364.6 548.77 1364.56 547.21 1367.61 547.14C1370.79 547.07 1370.62 548.83 1370.54 550.92C1370.49 552.37 1370.53 553.82 1370.53 557.14C1376.44 548.41 1383.72 545.75 1392.33 546.69C1397.63 547.27 1402.27 549.5 1405.79 553.59C1414.28 563.44 1413.63 580.49 1404.51 589.22C1395.21 598.11 1382.85 597.03 1370.53 585.78V585.79ZM1405.45 570.54C1405.38 559.4 1398.12 551.69 1387.82 551.82C1377.84 551.95 1370.46 560.16 1370.53 571.08C1370.6 581.62 1378.06 589.7 1387.84 589.84C1398.21 589.98 1405.51 581.98 1405.44 570.54H1405.45Z"
    fill="#3E2D1B" />
  <path
    d="M698.53 290.96C695.64 299.09 695.15 306.48 698.44 313.9C699.46 316.2 700.79 317.53 703.32 318.29C710.98 320.58 715.21 327.25 714.12 335.14C713.39 340.39 710.62 344.42 705.72 346.73C701.05 348.94 697.39 346.59 693.86 343.9C676.66 330.74 679.06 299.52 698.52 290.95L698.53 290.96Z"
    fill="#3E2D1B" />
  <path
    d="M719.02 347.29C719.73 342.23 721.45 337.54 720.7 332.54C719.78 326.44 718.43 321.52 711.4 318.95C702.23 315.6 699.86 303.69 705.86 295.94C710.24 290.28 715.53 289.44 721.5 293.45C739.84 305.77 738.62 337.69 719.02 347.3V347.29Z"
    fill="#3E2D1B" />
  <path
    d="M1019.72 571.16C1019.72 577.81 1019.67 584.47 1019.75 591.12C1019.78 593.22 1019.59 594.64 1016.88 594.49C1014.79 594.38 1013.37 594.24 1013.51 591.54C1013.68 588.12 1012.61 587.3 1009.54 589.67C1000.85 596.39 991.23 596.98 982.7 591.64C975.37 587.05 971.14 576.37 972.78 566.58C975.92 547.81 994.73 540.26 1009.56 551.92C1012.79 554.46 1013.69 553.34 1013.52 549.98C1013.37 547.14 1015.07 547.29 1017.03 547.18C1019.36 547.05 1019.78 548.17 1019.76 550.19C1019.68 557.18 1019.73 564.16 1019.73 571.15L1019.72 571.16ZM1013.63 570.9C1013.65 559.92 1006.31 551.88 996.21 551.82C986.02 551.76 978.71 559.67 978.72 570.74C978.72 581.81 985.96 589.77 996.08 589.86C1006.14 589.94 1013.6 581.88 1013.62 570.91L1013.63 570.9Z"
    fill="#3E2D1B" />
  <path
    d="M1634.05 586.51C1621.44 597.25 1608.69 597.86 1599.84 588.65C1591.22 579.68 1591.05 562.48 1599.49 553.41C1608.29 543.96 1621.15 544.39 1633.53 554.59C1634.99 553.48 1634.44 551.84 1634.32 550.52C1634.06 547.73 1635.32 547.21 1637.8 547.17C1640.65 547.12 1640.54 548.73 1640.54 550.7C1640.51 564.01 1640.51 577.33 1640.54 590.64C1640.54 592.67 1640.91 594.52 1637.68 594.55C1634.43 594.59 1634.17 593.02 1634.36 590.55C1634.45 589.43 1634.2 588.29 1634.06 586.52L1634.05 586.51ZM1599.5 570.73C1599.5 581.88 1606.64 589.75 1616.83 589.84C1626.86 589.93 1634.38 581.84 1634.42 570.92C1634.45 559.99 1627.06 551.89 1616.99 551.81C1606.81 551.73 1599.5 559.65 1599.5 570.73Z"
    fill="#3E2D1B" />
  <path
    d="M1265.49 573.2C1260.16 573.2 1254.83 573.34 1249.51 573.14C1246.59 573.03 1245.66 573.73 1246.36 576.79C1247.95 583.72 1252.83 588.51 1259.94 589.64C1267.4 590.83 1273.2 588.22 1276.88 582C1277.13 581.57 1277.29 581.09 1277.55 580.67C1279.07 578.23 1281.66 578.91 1283.31 579.64C1285.08 580.42 1283.43 582.26 1282.84 583.49C1279.17 591.23 1272.62 594.64 1264.44 595.11C1255.69 595.61 1248.41 592.56 1243.46 585.04C1238.11 576.91 1238.38 563.63 1243.95 555.67C1249.06 548.36 1258.65 545.01 1268.41 547.13C1279.13 549.46 1286.25 559.59 1285.13 570.5C1284.85 573.23 1283.41 573.24 1281.45 573.22C1276.12 573.18 1270.8 573.21 1265.47 573.2H1265.49ZM1262.07 568.27C1266.23 568.27 1270.41 568.05 1274.56 568.34C1278.21 568.59 1279.31 567.41 1278.54 563.81C1276.97 556.47 1270.09 551.44 1261.76 551.8C1253.85 552.15 1246.98 558.33 1246.22 565.53C1245.96 568.02 1247.13 568.31 1249.08 568.29C1253.41 568.23 1257.74 568.27 1262.07 568.27Z"
    fill="#3E2D1B" />
  <path
    d="M1108.96 573.2C1103.64 573.2 1098.31 573.29 1093 573.16C1089.95 573.09 1089.32 574.32 1089.96 577.11C1091.47 583.66 1096.46 588.45 1103.3 589.61C1110.73 590.88 1116.76 588.25 1120.33 582.18C1120.75 581.46 1120.95 580.54 1121.52 580.01C1123.06 578.61 1125.2 578.89 1126.67 579.54C1128.63 580.4 1127.05 582.08 1126.5 583.3C1120.16 597.12 1099.28 599.6 1089 587.58C1082.34 579.79 1081.72 570.63 1084.79 561.26C1087.44 553.17 1093.36 548.39 1101.77 546.9C1117.1 544.18 1129.08 554.44 1128.7 569.66C1128.63 572.61 1127.66 573.34 1124.92 573.25C1119.6 573.07 1114.28 573.2 1108.96 573.2ZM1105.75 568.27C1110.07 568.27 1114.4 568.06 1118.7 568.33C1122.52 568.57 1122.77 566.85 1122.06 563.83C1120.31 556.31 1113.73 551.49 1105.39 551.79C1097.55 552.08 1090.81 557.98 1089.74 565.33C1089.42 567.52 1090.06 568.34 1092.31 568.29C1096.79 568.18 1101.27 568.26 1105.76 568.26L1105.75 568.27Z"
    fill="#3E2D1B" />
  <path
    d="M1457.65 573.2C1452.32 573.2 1446.99 573.41 1441.68 573.13C1438.16 572.94 1437.83 574.28 1438.56 577.2C1440.24 583.93 1445.04 588.49 1451.95 589.63C1459.4 590.85 1465.28 588.25 1468.93 582.09C1469.27 581.52 1469.41 580.81 1469.83 580.32C1471.41 578.5 1473.75 578.87 1475.33 579.59C1477.24 580.46 1475.56 582.2 1474.99 583.42C1470.33 593.33 1458.3 597.77 1446.79 593.88C1436.94 590.56 1430.88 580.5 1431.72 568.89C1432.58 556.95 1439.67 548.64 1450.5 546.85C1465.67 544.35 1477.51 554.45 1477.24 569.41C1477.18 572.62 1476.05 573.37 1473.13 573.26C1467.98 573.07 1462.81 573.21 1457.65 573.21V573.2ZM1454.33 568.27C1458.49 568.27 1462.68 568.01 1466.82 568.35C1470.87 568.68 1471.25 566.85 1470.55 563.63C1468.97 556.44 1462.34 551.61 1454.15 551.81C1446.2 552 1439.46 557.84 1438.35 565.23C1437.95 567.89 1439.07 568.36 1441.34 568.31C1445.67 568.2 1450 568.28 1454.33 568.28V568.27Z"
    fill="#3E2D1B" />
  <path
    d="M1323.51 546.63C1332.34 546.64 1338.59 550.58 1340.24 557.26C1340.56 558.58 1341.62 560.54 1339.41 560.96C1337.73 561.28 1335.72 562.02 1334.38 559.3C1331.06 552.54 1326.61 550.58 1319.89 552.3C1316.43 553.19 1313.79 554.95 1313.36 558.86C1312.95 562.69 1315.34 564.9 1318.36 566.1C1323.45 568.13 1328.85 569.39 1333.91 571.48C1340.83 574.34 1343.21 581.2 1339.88 587.52C1339.57 588.11 1339.19 588.66 1338.79 589.19C1331.89 598.25 1312.84 596.83 1307.57 586.76C1306.71 585.12 1304.4 582.67 1307.17 581.25C1309.18 580.22 1311.85 580.37 1313.07 583.77C1315.72 591.14 1328.14 591.07 1332.2 587.77C1336.81 584.03 1335.85 577.93 1329.94 575.63C1324.99 573.71 1319.71 572.59 1314.78 570.62C1308.69 568.18 1306.2 563.56 1307.15 557.59C1307.91 552.82 1311.13 550.1 1315.24 548.17C1317.86 546.94 1320.62 546.49 1323.5 546.64L1323.51 546.63Z"
    fill="#3E2D1B" />
  <path
    d="M1712.81 546.62C1721.21 546.65 1727.26 550.15 1729.18 556.35C1729.64 557.84 1731.16 560.14 1728.5 560.96C1726.55 561.56 1724.56 561.6 1723.36 558.69C1720.85 552.62 1715.03 550.38 1708.52 552.43C1705.31 553.44 1702.88 555.3 1702.55 558.97C1702.22 562.55 1704.44 564.71 1707.26 565.9C1711.23 567.58 1715.44 568.67 1719.52 570.07C1727.76 572.89 1730.94 576.62 1730.47 582.87C1730.01 589.09 1724.78 593.9 1717.22 595.05C1708.08 596.44 1698.66 592.15 1696.13 585.3C1695.64 583.97 1693.96 581.88 1696.46 581.18C1698.22 580.69 1700.47 580.1 1701.97 582.91C1705.27 589.13 1712.45 591.58 1718.9 589.11C1721.86 587.97 1724 586.04 1724.31 582.6C1724.64 578.97 1722.58 576.92 1719.58 575.81C1716 574.49 1712.26 573.58 1708.62 572.41C1698.95 569.32 1695.32 564.87 1696.4 557.51C1697.33 551.15 1704.22 546.59 1712.83 546.62H1712.81Z"
    fill="#3E2D1B" />
  <path
    d="M1165.55 546.62C1174.18 546.65 1180.29 550.18 1182.2 556.35C1182.67 557.85 1184.17 560.15 1181.52 560.97C1179.59 561.57 1177.59 561.61 1176.38 558.7C1173.77 552.44 1166.2 549.91 1160.13 552.93C1157.52 554.23 1155.49 556.13 1155.53 559.47C1155.57 563.05 1157.88 565.02 1160.71 566.13C1165.65 568.08 1170.87 569.34 1175.79 571.32C1183 574.22 1185.54 581.15 1182.09 587.61C1181.78 588.19 1181.39 588.75 1180.99 589.27C1174.03 598.27 1154.99 596.74 1149.77 586.65C1148.95 585.07 1146.53 582.58 1149.51 581.2C1151.61 580.22 1153.95 580.64 1155.43 583.8C1158.36 590.07 1169.11 592 1174.54 587.69C1178.99 584.17 1178.15 578.08 1172.58 575.82C1167.35 573.7 1161.8 572.4 1156.53 570.37C1152.18 568.69 1149.65 565.36 1149.31 560.5C1148.95 555.43 1151.26 551.86 1155.35 549.27C1158.53 547.25 1162.05 546.39 1165.56 546.61L1165.55 546.62Z"
    fill="#3E2D1B" />
  <path
    d="M1518.52 546.61C1528.14 546.55 1535.2 549.47 1539.3 557.47C1540.02 558.88 1542.46 561.22 1539.76 562.42C1537.92 563.23 1535.2 563.43 1533.57 560.24C1529.88 553.03 1523.67 550.56 1515.61 552.31C1510.12 553.5 1506.36 556.79 1504.4 561.95C1502.19 567.75 1502.14 573.72 1504.32 579.54C1506.7 585.91 1511.47 589.5 1518.26 589.86C1524.82 590.2 1530.41 588.3 1533.56 581.84C1534.03 580.88 1534.11 579.32 1535.53 579.21C1537.15 579.08 1539.2 578.73 1540.33 579.52C1541.79 580.55 1540.23 582.28 1539.63 583.5C1535.79 591.32 1529.15 594.81 1520.73 595.12C1511.94 595.45 1504.76 592.29 1500.1 584.54C1491.13 569.61 1499.12 549.57 1515.06 546.93C1516.53 546.69 1518.03 546.66 1518.52 546.62V546.61Z"
    fill="#3E2D1B" />
  <path
    d="M929.94 546.6C939.44 546.6 946.43 549.66 950.47 557.67C951.16 559.03 953.35 561.32 951.04 562.34C949.29 563.11 946.47 563.69 944.75 560.45C940.79 553.01 935.02 550.62 926.91 552.25C920.98 553.44 917.13 557.01 915.21 562.63C913.56 567.46 913.4 572.38 914.7 577.37C916.51 584.35 921.11 588.68 928.06 589.72C935.44 590.82 941.03 588.12 944.65 581.57C945.5 580.04 946.19 578.99 948.3 578.99C951.41 578.99 952.59 579.33 951.05 582.83C946.83 592.43 935.67 597.34 924.12 594.34C913.61 591.61 907.05 581.73 907.6 569.46C908.14 557.48 915.53 548.54 926.33 546.87C927.8 546.64 929.31 546.64 929.93 546.6H929.94Z"
    fill="#3E2D1B" />
  <path
    d="M1047.02 573.46C1047.02 567.81 1046.89 562.15 1047.08 556.5C1047.17 553.64 1046.6 551.97 1043.32 552.44C1041.31 552.73 1040.23 552.03 1040.3 549.73C1040.36 547.69 1041.31 547 1043.09 547.28C1046.66 547.84 1047.06 546 1047.1 542.96C1047.23 533.96 1052.09 529.15 1060.6 529.16C1062.08 529.16 1063.72 528.86 1063.76 531.2C1063.79 533.04 1063.65 534.45 1061.21 534.48C1058.66 534.51 1056.19 535.18 1054.68 537.49C1052.98 540.1 1052.17 543.34 1053.09 546.04C1053.98 548.66 1057.23 546.67 1059.33 547.28C1060.93 547.74 1063.54 545.75 1063.94 549.26C1064.26 552.02 1063.06 552.5 1060.55 552.52C1052.79 552.57 1052.79 552.69 1052.79 560.48C1052.79 570.63 1052.79 580.77 1052.79 590.92C1052.79 592.78 1053.1 594.49 1050.17 594.54C1047.31 594.59 1046.92 593.33 1046.97 590.94C1047.09 585.12 1047.01 579.3 1047.01 573.48L1047.02 573.46Z"
    fill="#3E2D1B" />
  <path
    d="M1564.41 570.29C1564.41 563.8 1564.49 557.3 1564.37 550.81C1564.33 548.43 1564.69 547.19 1567.56 547.15C1570.65 547.11 1570.58 548.76 1570.57 550.93C1570.53 564.25 1570.51 577.57 1570.59 590.89C1570.6 593.23 1570.36 594.55 1567.44 594.53C1564.42 594.52 1564.36 593.01 1564.38 590.76C1564.47 583.94 1564.41 577.11 1564.41 570.28V570.29Z"
    fill="#3E2D1B" />
  <path
    d="M1673.58 571.11C1673.58 577.77 1673.53 584.43 1673.61 591.09C1673.63 593.16 1673.51 594.54 1670.77 594.52C1668.16 594.5 1667.36 593.71 1667.39 591.07C1667.52 577.58 1667.51 564.1 1667.39 550.61C1667.37 547.96 1668.2 547.2 1670.8 547.17C1673.57 547.14 1673.63 548.6 1673.61 550.63C1673.55 557.46 1673.59 564.28 1673.59 571.11H1673.58Z"
    fill="#3E2D1B" />
  <path
    d="M1113.36 528.16C1114.53 531.73 1113.65 533.83 1110.6 535.41C1105.95 537.83 1101.5 540.62 1096.82 543.34C1095.64 540.21 1096.6 538.48 1099.12 537.02C1103.82 534.29 1108.36 531.29 1113.36 528.16Z"
    fill="#3E2D1B" />
  <path
    d="M1571.76 533.85C1571.45 536.53 1570.14 538.35 1567.37 538.4C1564.55 538.45 1562.96 536.47 1562.92 533.97C1562.87 531.43 1564.53 529.52 1567.3 529.5C1570.06 529.47 1571.46 531.21 1571.76 533.85Z"
    fill="#3E2D1B" />
  <path
    d="M1674.78 534.06C1674.38 536.69 1673.01 538.46 1670.24 538.39C1667.44 538.32 1665.88 536.27 1665.95 533.79C1666.02 531.3 1667.69 529.37 1670.51 529.48C1673.25 529.59 1674.62 531.33 1674.78 534.05V534.06Z"
    fill="#3E2D1B" />
</svg>